<?xml version="1.0" encoding="UTF-8"?>
<svg id="Calque_2" data-name="Calque 2" xmlns="http://www.w3.org/2000/svg" viewBox="0 0 483.47 483.48">
  <defs>
    <style>
      .cls-1 {
        opacity: .22;
      }

      .cls-1, .cls-2 {
        stroke-width: 0px;
      }

      .cls-2 {
        fill: #9700ff;
      }
    </style>
  </defs>
  <g id="Calque_1-2" data-name="Calque 1">
    <path class="cls-2" d="M483.47,241.74c0,100.45-61.27,186.6-148.47,223.09-28.7,12.01-60.2,18.65-93.26,18.65C108.23,483.48,0,375.25,0,241.74S108.23,0,241.74,0c101.26,0,187.96,62.25,223.95,150.57,11.46,28.14,17.78,58.92,17.78,91.17Z"/>
    <path class="cls-1" d="M483.47,241.74c0,100.45-61.27,186.6-148.47,223.09l-167.04-84.25,26.22-145.81-100.08-74.25,200.26-65.39,171.33,55.44c11.46,28.14,17.78,58.92,17.78,91.17Z"/>
  </g>
</svg>