<?xml version="1.0" encoding="utf-8"?>
<!-- Generator: Adobe Illustrator 28.2.0, SVG Export Plug-In . SVG Version: 6.00 Build 0)  -->
<svg version="1.1" xmlns="http://www.w3.org/2000/svg" xmlns:xlink="http://www.w3.org/1999/xlink" x="0px" y="0px"
	 viewBox="0 0 512 512" style="enable-background:new 0 0 512 512;" xml:space="preserve">
<style type="text/css">
	.st0{fill:#9700FF;}
	.st1{opacity:0.22;}
	.st2{fill:#FFFFFF;}
	.st3{fill:none;}
</style>
<g id="Calque_2">
</g>
<g id="Calque_1">
	<path class="st0" d="M500,256.4c0,100.5-61.3,186.6-148.5,223.1c-28.7,12-60.2,18.7-93.3,18.7c-133.5,0-241.7-108.2-241.7-241.7
		S124.8,14.6,258.3,14.6c101.3,0,188,62.2,224,150.6C493.7,193.3,500,224.1,500,256.4z"/>
	<path class="st1" d="M500,256.4c0,100.5-61.3,186.6-148.5,223.1l-167-84.2l26.2-145.8l-100.1-74.2l200.3-65.4l171.3,55.4
		C493.7,193.3,500,224.1,500,256.4z"/>
	<g>
		<path class="st2" d="M294.1,237.1l40-61.9l13-20.2c-5.5-24.2-22.8-43-44.5-47.8c-3.6-0.8-7.4-1.2-11.2-1.2H172.1
			c-34.2,0-61.8,27.7-61.8,61.8c0,2.5,0.2,5,0.5,7.4h148l-17.8,27.6L195.5,273L171,310.9l-18.3,28.3c0,0.8,0.1,1.7,0.1,2.5
			l46.6-29.6l78.2-49.7L294.1,237.1z"/>
		<path class="st2" d="M348.9,310.9H246.4l9.3-14.4l9.7-15l-111.1,70.6c4,18.9,15.3,34.6,30.2,43.1H404c1.5-5.9,2.4-12.2,2.4-18.7
			C406.4,340.3,380.7,310.9,348.9,310.9z"/>
	</g>
	<line class="st3" x1="184.5" y1="395.2" x2="512" y2="498.1"/>
	<g>
		<path class="st2" d="M-155.7,353.2c0,11.6-4.7,22.1-12.3,29.7c-7.6,7.6-18.1,12.3-29.7,12.3c-11.6,0-22.1-4.7-29.7-12.3
			c-7.6-7.6-12.3-18.1-12.3-29.7s4.7-22.1,12.3-29.7c7.6-7.6,18.1-12.3,29.7-12.3c11.6,0,22.1,4.7,29.7,12.3
			C-160.4,331.2-155.7,341.7-155.7,353.2z"/>
		<path class="st2" d="M-560.9,385.1c3.8-3.8,132.4-6.1,138.2-6.1c2.8,0,67.3,0.6,69.7,1.6c2.6,1.1,66.6,2.6,68.5,4.6
			c1.9,1.9,3.5,42.5,4.6,45.1c1,2.5,1.6,43.5,1.6,46.3c0,5.8-2.3,87.6-6.1,91.4c-1.9,1.9-65.9,3.5-68.5,4.6
			c-2.5,1-66.9,1.6-69.7,1.6c-5.8,0-134.4-2.3-138.2-6.1s-6.1-85.6-6.1-91.4c0-2.8,0.6-43.8,1.6-46.3
			C-564.4,427.6-562.9,387-560.9,385.1z"/>
		<polygon class="st2" points="-401,752.8 -524.4,752.8 -647.7,752.8 -894.5,752.8 -894.5,599.8 -894.5,523.2 -894.5,446.7 
			-647.7,446.7 -524.4,446.7 -401,446.7 -401,523.2 -401,599.8 		"/>
	</g>
</g>
</svg>
