<?xml version="1.0" encoding="UTF-8"?>
<svg id="Calque_2" data-name="Calque 2" xmlns="http://www.w3.org/2000/svg" viewBox="0 0 531.06 111.81">
  <defs>
    <style>
      .cls-1 {
        fill: #fff;
        stroke-width: 0px;
      }
    </style>
  </defs>
  <g id="Calque_1-2" data-name="Calque 1">
    <g>
      <path class="cls-1" d="M0,111.6v-2.9h4c4.5,0,7.69-1.44,9.57-4.32,1.15-1.73,1.73-5.6,1.73-11.61V24.01c0-6.64-.73-10.8-2.2-12.48-2.04-2.3-5.07-3.45-9.1-3.45H0v-2.9h43.32c15.9,0,28,1.8,36.3,5.41,8.29,3.61,14.96,9.63,20.01,18.05,5.05,8.42,7.57,18.16,7.57,29.19,0,14.81-4.5,27.18-13.5,37.12-10.1,11.09-25.48,16.64-46.14,16.64H0ZM30.37,103.9c6.64,1.46,12.22,2.2,16.72,2.2,12.14,0,22.21-4.26,30.21-12.79,8-8.53,12.01-20.09,12.01-34.69s-4-26.29-12.01-34.77c-8-8.48-18.29-12.71-30.84-12.71-4.71,0-10.07.76-16.09,2.28v90.48Z"/>
      <path class="cls-1" d="M220.05,52.89c5.23-5.23,8.32-8.24,9.26-9.02,2.35-1.99,4.89-3.53,7.61-4.63,2.72-1.1,5.41-1.65,8.08-1.65,4.5,0,8.37,1.31,11.61,3.92,3.24,2.62,5.41,6.41,6.51,11.38,5.39-6.28,9.94-10.4,13.66-12.36,3.71-1.96,7.53-2.94,11.46-2.94s7.21.98,10.16,2.94c2.96,1.96,5.3,5.17,7.02,9.61,1.15,3.03,1.73,7.8,1.73,14.28v30.92c0,4.5.34,7.59,1.02,9.26.52,1.15,1.49,2.13,2.9,2.94,1.41.81,3.71,1.22,6.91,1.22v2.83h-35.47v-2.83h1.49c3.09,0,5.49-.6,7.22-1.8,1.2-.84,2.07-2.17,2.59-4,.21-.89.31-3.43.31-7.61v-30.92c0-5.86-.71-9.99-2.12-12.4-2.04-3.35-5.31-5.02-9.81-5.02-2.77,0-5.56.69-8.36,2.08-2.8,1.39-6.19,3.96-10.16,7.73l-.16.86.16,3.37v34.29c0,4.92.27,7.98.82,9.18.55,1.2,1.58,2.21,3.1,3.02,1.52.81,4.11,1.22,7.77,1.22v2.83h-36.34v-2.83c3.98,0,6.71-.47,8.2-1.41s2.52-2.35,3.1-4.24c.26-.89.39-3.48.39-7.77v-30.92c0-5.86-.86-10.07-2.59-12.63-2.3-3.35-5.52-5.02-9.65-5.02-2.83,0-5.62.76-8.4,2.28-4.34,2.3-7.69,4.89-10.05,7.77v38.53c0,4.71.33,7.77.98,9.18.65,1.41,1.62,2.47,2.9,3.18,1.28.71,3.88,1.06,7.81,1.06v2.83h-35.55v-2.83c3.3,0,5.6-.35,6.91-1.06,1.31-.71,2.3-1.83,2.98-3.37.68-1.54,1.02-4.54,1.02-8.99v-27.47c0-7.9-.24-13-.71-15.3-.37-1.73-.94-2.92-1.73-3.57-.78-.65-1.86-.98-3.22-.98-1.46,0-3.22.39-5.26,1.18l-1.18-2.83,21.66-8.79h3.37v15.3Z"/>
      <path class="cls-1" d="M348.52,37.59v57.76c0,4.5.33,7.49.98,8.99.65,1.49,1.62,2.6,2.9,3.34,1.28.73,3.62,1.1,7.02,1.1v2.83h-34.92v-2.83c3.5,0,5.86-.34,7.06-1.02,1.2-.68,2.16-1.8,2.86-3.37s1.06-4.58,1.06-9.02v-27.7c0-7.8-.24-12.84-.71-15.15-.37-1.67-.94-2.84-1.73-3.49-.78-.65-1.86-.98-3.22-.98-1.46,0-3.24.39-5.34,1.18l-1.1-2.83,21.66-8.79h3.45ZM342,0c2.2,0,4.07.77,5.61,2.32,1.54,1.54,2.32,3.41,2.32,5.61s-.77,4.08-2.32,5.65c-1.54,1.57-3.41,2.35-5.61,2.35s-4.08-.78-5.65-2.35-2.35-3.45-2.35-5.65.77-4.07,2.32-5.61,3.44-2.32,5.69-2.32Z"/>
      <path class="cls-1" d="M393.09,0v95.35c0,4.5.33,7.48.98,8.95.65,1.46,1.66,2.58,3.02,3.34,1.36.76,3.9,1.14,7.61,1.14v2.83h-35.24v-2.83c3.3,0,5.55-.34,6.75-1.02,1.2-.68,2.15-1.8,2.83-3.37s1.02-4.58,1.02-9.02V30.06c0-8.11-.18-13.09-.55-14.95-.37-1.86-.95-3.13-1.77-3.81-.81-.68-1.84-1.02-3.1-1.02-1.36,0-3.09.42-5.18,1.26l-1.33-2.75,21.42-8.79h3.53Z"/>
      <path class="cls-1" d="M437.83,37.59v57.76c0,4.5.33,7.49.98,8.99s1.62,2.6,2.9,3.34c1.28.73,3.62,1.1,7.02,1.1v2.83h-34.92v-2.83c3.51,0,5.86-.34,7.06-1.02,1.2-.68,2.16-1.8,2.86-3.37.71-1.57,1.06-4.58,1.06-9.02v-27.7c0-7.8-.24-12.84-.71-15.15-.37-1.67-.94-2.84-1.73-3.49-.78-.65-1.86-.98-3.22-.98-1.46,0-3.24.39-5.34,1.18l-1.1-2.83,21.66-8.79h3.45ZM431.31,0c2.2,0,4.07.77,5.61,2.32,1.54,1.54,2.32,3.41,2.32,5.61s-.77,4.08-2.32,5.65-3.41,2.35-5.61,2.35-4.08-.78-5.65-2.35-2.35-3.45-2.35-5.65.77-4.07,2.32-5.61c1.54-1.54,3.44-2.32,5.69-2.32Z"/>
      <path class="cls-1" d="M454.78,39.71h33.82v2.9c-2.15,0-3.65.37-4.51,1.1-.86.73-1.29,1.7-1.29,2.9s.92,3.19,2.75,5.81c.58.84,1.44,2.15,2.59,3.92l5.1,8.16,5.89-8.16c3.77-5.18,5.65-8.45,5.65-9.81,0-1.1-.44-2.03-1.33-2.79-.89-.76-2.33-1.14-4.32-1.14v-2.9h24.33v2.9c-2.56.16-4.79.86-6.67,2.12-2.56,1.78-6.07,5.65-10.52,11.61l-9.81,13.11,17.89,25.74c4.39,6.33,7.53,10.14,9.42,11.42,1.88,1.28,4.32,2,7.3,2.16v2.83h-33.9v-2.83c2.35,0,4.19-.52,5.49-1.57.99-.73,1.49-1.7,1.49-2.9s-1.67-4.24-5.02-9.1l-10.52-15.38-11.54,15.38c-3.56,4.76-5.34,7.59-5.34,8.48,0,1.26.59,2.39,1.77,3.41s2.94,1.58,5.3,1.69v2.83h-23.46v-2.83c1.88-.26,3.53-.91,4.94-1.96,1.99-1.52,5.34-5.39,10.05-11.61l15.07-20.01-13.66-19.78c-3.87-5.65-6.87-9.19-8.99-10.63-2.12-1.44-4.77-2.16-7.97-2.16v-2.9Z"/>
      <g>
        <path class="cls-1" d="M179.4,77.32s.02.05.04.07c.08.12.19.2.23.34,0,.04.01.08.01.11.01-.01.03-.02.04-.02,0,0,.02-.01.02-.02.03-.03.07-.01.09.02,0,0,0,0,0,0,.03-.08.06-.17.12-.23.07-.07.17-.1.25-.14,0,0,0,0,0,0h0s-.01-.03-.01-.03v-.02s-.03-.05-.03-.05l-.02-.05v-.02s-.01-.02-.01-.02l-.02-.04-.05-.12c-.02.06-.06.13-.15.13-.06,0-.05-.05-.02-.11.03-.06.06-.13.07-.16,0-.02,0-.03,0-.04,0,0,0,0,0,0-.03-.02-.02-.04,0-.07l-.04-.1s-.01.01-.02.02c0,.02,0,.05,0,.08-.01.11-.07.23-.18.33-.06.06-.15.11-.25.15-.03,0-.05.02-.08.03Z"/>
        <path class="cls-1" d="M179.11,76.94h0s.04-.02.05-.03c-.02,0-.04.02-.06.03,0,0,0,0,0,0Z"/>
        <polygon class="cls-1" points="179.95 76.72 179.95 76.72 179.96 76.73 179.96 76.73 179.95 76.72 179.95 76.71 179.94 76.72 179.95 76.72 179.95 76.72"/>
        <path class="cls-1" d="M179.72,76.86s-.04.02-.06.02c-.02.02-.04.05-.06.07-.04.04-.1.07-.16.09,0,0,0,0,0,0-.01.03-.02.05-.03.07.07-.04.16-.08.22-.14.04-.04.08-.08.1-.12Z"/>
        <path class="cls-1" d="M179.25,73.81s0,.07-.03.11c.03,0,.07,0,.1,0l-.07-.11Z"/>
        <path class="cls-1" d="M180.27,74.56s-.02-.03-.04-.05c0,0-.02.01-.03.02.01.01.02.02.03.04.01,0,.03,0,.04,0Z"/>
        <path class="cls-1" d="M180.14,77v.05s0,.03,0,.05v-.03s0-.03,0-.03v-.03s0-.03,0-.03v-.03s.01-.03.01-.03v-.02s-.02-.01-.03,0h0s0,.03,0,.03v.02s0,.02,0,.02v.05Z"/>
        <rect class="cls-1" x="161.69" y="78.35" width="3.87" height="4.29"/>
        <rect class="cls-1" x="161.69" y="82.98" width="3.87" height="4.29"/>
        <rect class="cls-1" x="161.69" y="70.76" width="3.87" height="3.99"/>
        <path class="cls-1" d="M180.26,77.03h0s0,.03,0,.03h0s0,.03,0,.03h0s0,.03,0,.03h0s0,.03,0,.03h0s0,.03,0,.03h0s0,.03,0,.03h0s0,.03,0,.03v.02s0-.03,0-.03v-.03s0-.03,0-.03v-.03s.01-.03.01-.03v-.03s.02-.03.02-.03v-.02s.02-.02.02-.02v-.02s-.02.01-.04.01v.02s-.01.01-.01.01Z"/>
        <path class="cls-1" d="M180.25,76.68h0s0-.02,0-.02c0,0-.01-.01-.02-.01,0,0,0,.02,0,.03,0,0,0,0,0,0Z"/>
        <path class="cls-1" d="M174.96,76.44s-.02-.02-.02-.03c0,0,0,.02,0,.03,0,0,.02,0,.02,0Z"/>
        <polygon class="cls-1" points="179 73.49 179 73.5 179 73.5 179 73.49"/>
        <path class="cls-1" d="M179.08,76.71s-.01-.02-.02-.03c0,.01,0,.02,0,.04,0,0,0,.02,0,.03.01,0,.03-.02.04-.03,0,0,0,0,0,0Z"/>
        <path class="cls-1" d="M176.84,76.29s-.03.03-.05.05c0,0,.02,0,.03,0,0-.01.02-.02.03-.04,0,0,0-.01,0-.02Z"/>
        <path class="cls-1" d="M176.78,77.32s.08.05.12.07c0-.02,0-.03,0-.05,0,0,0,0,0,0-.04,0-.07-.01-.11-.03,0,0,0,0,0,0Z"/>
        <path class="cls-1" d="M176.92,77.07s0-.02.01-.03c.02-.05.04-.1.07-.14,0,0,0-.02,0-.03-.03-.02-.05-.03-.08-.05-.01,0-.03.01-.04.02,0,.04.02.07.02.11,0,.04.01.09,0,.13Z"/>
        <path class="cls-1" d="M175.94,76.71s0,0,0,0c0,0,0,0-.01,0,0,0,0,0,0,0,0,0,0,0,.01,0Z"/>
        <path class="cls-1" d="M175.76,76.89s0,0,0,0c.01,0,.02.01.04.01,0,0-.01-.01-.02-.02,0,0,0,0,0,0,0,0,0,0-.01,0Z"/>
        <path class="cls-1" d="M178.6,73.94s-.04.01-.06.01c-.12,0-.24-.07-.28-.17-.01-.03-.02-.05-.03-.08,0,0,0,0,0,0-.08.06-.17.1-.29.1-.17-.01-.35-.1-.52-.12-.19-.03-.38-.04-.57-.02-.2.01-.39.08-.59.12-.17.04-.34.09-.49.18-.17.11-.33.27-.45.45-.05.25-.21.44-.35.69-.19.34-.1.7-.05,1.06,0,.04,0,.07.01.11.01-.02.03-.04.04-.06h0s0,0,0,0h0s0,.01,0,.02c0,.01,0,.03,0,.05,0,.04.02.09.05.17.03.07.08.16.15.22.02.02.04.03.05.04,0-.03-.02-.07-.01-.1,0,0,0,0,0,0,0,0,0-.01-.01-.02v-.02s-.02-.01-.02-.03c0-.02-.01-.05-.02-.07-.01-.09,0-.18.04-.25.01-.02.03-.05.04-.07.02-.11.08-.21.17-.29,0,0,0,0-.01,0-.02,0-.04,0-.05,0-.03,0-.05,0-.01-.01.01,0,.04-.02.07-.03-.01,0-.03,0-.04,0-.04,0-.07,0-.1-.01-.03,0-.06,0-.09-.01.03-.02.06-.03.1-.05.04-.02.07-.03.11-.04.02,0,.04-.01.06-.02.02,0,.04,0,.07-.01.07-.06.17-.07.26-.06.02-.05.05-.1.08-.15.06-.09.2-.14.31-.11,0-.03,0-.05,0-.08-.03-.18,0-.36.09-.54.1-.17.26-.29.44-.36,0,0,0,0,0-.01.33-.43.9-.56,1.42-.35.12.05.15.15.13.24.12,0,.22,0,.31.05.03,0,.05,0,.08,0-.06-.1-.04-.25.07-.31-.02,0-.04,0-.07-.02-.02,0-.04-.02-.07-.03Z"/>
        <path class="cls-1" d="M178.46,77.43c-.2.06-.35.05-.43,0-.02.02-.05.03-.07.04-.14.09-.22.19-.1.35.06.08.19.17.28.22.2.13.51.06.75.04.14,0,.28-.02.42-.03.04,0,.08,0,.12,0,.1-.17.05-.31-.1-.48-.07-.07-.12-.14-.15-.23,0,0,0,0-.01,0,0,0,0,0,0-.01,0-.01,0-.03,0-.04-.01-.07,0-.16.02-.24-.08,0-.16-.04-.23-.08-.03,0-.06.01-.09.02,0,.02,0,.04,0,.06,0,.02-.01.05-.02.07,0,0,0,0,0,0,0,.04,0,.08,0,.12-.02-.01-.03-.02-.05-.03-.06.08-.16.16-.32.21Z"/>
        <polygon class="cls-1" points="148.98 89.59 147.37 90.23 147.37 90.27 150.24 90.27 150.24 84.28 148.98 84.28 148.98 89.59"/>
        <path class="cls-1" d="M178.51,76.43s0,.02.01.02c0-.02.02-.03.03-.05-.01,0-.03.02-.04.03Z"/>
        <path class="cls-1" d="M175.48,75.82s-.01,0-.02,0c0,0,0,.01,0,.02,0,0,.01,0,.02-.01Z"/>
        <path class="cls-1" d="M178.67,76.7s.07.07.1.11c-.01-.02-.02-.03-.03-.05-.04-.07-.05-.14-.04-.21,0-.07.04-.13.07-.17,0-.02,0-.03,0-.05-.03.02-.06.05-.08.08-.04.07-.06.16-.03.28Z"/>
        <path class="cls-1" d="M175.46,75.8s0,0,0,0c-.01,0-.02,0-.03,0,.01,0,.02,0,.04,0,0,0,0,0,0-.01Z"/>
        <rect class="cls-1" x="161.69" y="66.42" width="3.87" height="3.99"/>
        <path class="cls-1" d="M181.7,76.01h0s-.02,0-.02,0h-.02s0,.01,0,.02h.05s0-.02,0-.03Z"/>
        <polygon class="cls-1" points="179.06 73.5 179.06 73.5 179.06 73.5 179.06 73.5"/>
        <path class="cls-1" d="M180.45,76.8v-.02s-.02.01-.02.02c0,0,0,.02,0,.03h0s.02-.03.02-.03Z"/>
        <path class="cls-1" d="M178.99,73.4s0,0,0,0c.01.02.02.03.03.05-.01-.02-.02-.03-.03-.05Z"/>
        <path class="cls-1" d="M180.58,70.23c.08-.08.16-.17.24-.25-.02,0-.03.01-.05.01-.04.04-.08.07-.12.11-.04.04-.09.08-.13.12-.03.03-.07.06-.1.1.02,0,.03.02.05.03.04-.04.08-.08.12-.12Z"/>
        <polygon class="cls-1" points="180.33 70.26 180.33 70.26 180.33 70.26 180.34 70.26 180.33 70.26"/>
        <path class="cls-1" d="M182.71,75.89s-.01,0-.02,0c-.01,0-.02.02-.03.03,0,0,0,0,0,.01h.03s.02-.03.02-.03Z"/>
        <path class="cls-1" d="M183.34,75.72s-.02,0-.03,0c0,0,.01,0,.02,0h.02Z"/>
        <path class="cls-1" d="M183.32,75.73s0,0-.01,0c0,0,0,0,0,0h.01Z"/>
        <path class="cls-1" d="M183.37,75.72s.02,0,.02,0c.02,0,.03,0,0,0-.01,0-.03,0-.04,0h-.01s.02,0,.03,0Z"/>
        <path class="cls-1" d="M180.23,68.26h0s.01,0,.02,0l-.02-.02-.02-.03s0,0-.01,0l.03.04h0Z"/>
        <path class="cls-1" d="M181.97,74.83s-.04,0-.08.02c0,0-.02,0-.03,0,0,.01.02.02.02.04.02-.03.05-.05.08-.06Z"/>
        <path class="cls-1" d="M182.73,75.86s0,0-.01,0c0,0-.01.01-.02.02,0,0,0,0,.01,0,0,0,.01-.02.02-.03Z"/>
        <polygon class="cls-1" points="179.14 67.21 179.16 67.2 179.18 67.2 179.23 67.18 179.21 67.18 179.19 67.18 179.18 67.19 179.16 67.19 179.15 67.19 179.13 67.19 179.11 67.2 179.1 67.2 179.09 67.2 179.12 67.22 179.14 67.21"/>
        <path class="cls-1" d="M134.93,74.15h-.21s.02.07,0,.12c-.07.34.02.73.43.82.3.06.61.03.92.04.21,0,.42-.01.6.05.09.03.18.08.25.17.16.19.21.41.23.64,0,.03.04.44.03.44.03,0,.05,0,.08,0,.08,0,.17,0,.25.02v-1.65h-2.58v-.66Z"/>
        <path class="cls-1" d="M137.06,80.01s0,0,0,0c-.02.32-.02.63-.03.95,0,.21-.06.51.11.68.09.09.24.14.38.13v-1.77c-.15,0-.31-.02-.45.01Z"/>
        <path class="cls-1" d="M140.03,69.8s-.01.02-.02.03l.1-.06s-.03-.03-.08.03Z"/>
        <path class="cls-1" d="M137.41,76.91s-.09,0-.14,0c-.03,0-.07,0-.1,0,0,.9-.03,1.8-.1,2.7,0,0,0,.01,0,.02.02,0,.04,0,.05,0,.13-.03.25-.03.38,0v-2.65s-.03-.02-.04-.03c0,0-.02,0-.06,0Z"/>
        <rect class="cls-1" x="144.66" y="74.93" width="2.15" height="3.72"/>
        <path class="cls-1" d="M180.01,71.71c.02.08.02.15,0,.21,0,.02-.01.04-.02.06.01,0,.02.02.03.03,0-.02,0-.03.01-.05.02-.08.02-.16,0-.25,0,0-.01,0-.02,0Z"/>
        <path class="cls-1" d="M142.63,68.31l.04-.02s-.02,0-.03-.01c0,.01,0,.02-.01.04Z"/>
        <polygon class="cls-1" points="179.76 67.76 179.76 67.77 179.77 67.77 179.79 67.79 179.83 67.81 179.87 67.84 179.9 67.87 179.93 67.9 179.95 67.91 179.96 67.92 179.97 67.93 180 67.96 180.03 67.99 180.04 68 180.05 68.02 180.1 68.06 180.12 68.07 180.11 68.07 180.09 68.05 180.06 68.01 180.05 68 180.05 67.99 180.03 67.97 179.99 67.93 179.97 67.92 179.96 67.91 179.94 67.89 179.89 67.85 179.88 67.84 179.87 67.83 179.86 67.83 179.84 67.81 179.81 67.79 179.78 67.77 179.77 67.76 179.76 67.76 179.75 67.75 179.75 67.75 179.75 67.75 179.76 67.76"/>
        <polygon class="cls-1" points="180.02 68.25 180.02 68.25 180.02 68.25 180.02 68.25"/>
        <path class="cls-1" d="M179.75,71.81s.03.03.05.04c-.02-.05-.03-.1-.06-.15-.05-.04-.11-.1-.12-.05,0,.01.01.04.03.08.03.03.07.06.1.09Z"/>
        <path class="cls-1" d="M135.11,89.78s.09.1.12.15c-.01-.07.02-.15.09-.2.14-.08.2.05.33.07.12.02.26.11.35-.04.08-.13-.12-.2-.11-.3.08-.55,1.11.26.9-.35-.08-.23-.38-.1-.43-.33-.08-.3.28-.21.38-.23.31-.05.24-.08.22-.4-.01-.24-.02-.34.24-.45.08-.03.18-.05.3-.04v-4.5h-2.4v6.61Z"/>
        <path class="cls-1" d="M131.5,90.35s.05-.02.08-.03c.21-.05.25.14.41.13.18,0,.19-.19.37-.18.09,0,.32.21.43.24-.11-.27,0-.55.4-.5.27.04.5.39.82.31.44-.1,0-.44.38-.66.02-.01.04-.02.06-.03v-6.47h-2.97v7.18Z"/>
        <rect class="cls-1" x="144.66" y="71.93" width="2.15" height="2.82"/>
        <path class="cls-1" d="M183.47,75.71s0,0,0,0c.02,0,.03,0,0,0Z"/>
        <path class="cls-1" d="M174.36,66.54s-.02.03-.04.05c0,0,.01,0,.02,0,0-.01.01-.03.02-.05Z"/>
        <path class="cls-1" d="M174.32,67.56s-.02,0-.03,0c0,0,0,0,0,0,.01,0,.02,0,.03,0,0,0,0,0,0,0Z"/>
        <path class="cls-1" d="M174.51,67.36s0,0,0,0c0,0,0,.02,0,.02h.01s0,0,0-.02Z"/>
        <path class="cls-1" d="M174.54,66.58s0,0,0-.01c0,0,0,0,0,.01,0,0,0,0,0,0Z"/>
        <path class="cls-1" d="M174.19,67.54s0,0,0,.01c0,0,0,0,0,0,.02-.03.05-.06.08-.09,0,0,0,0,0,0-.02.02-.04.03-.06.05,0,0-.02.02-.02.03Z"/>
        <path class="cls-1" d="M174.26,67.54s-.01.02-.02.03c.01,0,.02,0,.03,0,0,0,0,0,0-.02,0,0,0-.01,0-.02,0,0,0,0-.02,0Z"/>
        <path class="cls-1" d="M176.26,72.08s-.02-.02-.04-.04c0,0-.01,0-.02-.01,0,0,0,0,0-.01-.02.02-.04.05-.07.08,0,0,0,0,0,.01.02,0,.04,0,.06.01.05,0,.08,0,.07-.04Z"/>
        <path class="cls-1" d="M176.07,71.34s-.01,0-.02,0c0,0,0,0,0,.01,0,0,.02,0,.03,0,0,0,0,0,0,0Z"/>
        <path class="cls-1" d="M175.15,72.58s.05.08.07.12c.09-.1.18-.2.28-.29.1-.16.21-.31.32-.46.02-.03.04-.05.06-.08l-.17-.03-.77.17s-.04,0-.04,0c0,0,.08-.03.17-.07.03-.01.06-.02.09-.04-.05,0-.1.01-.15.01-.07.03-.12.05-.13.05,0,0,.01-.02.05-.05,0,0,0,0,0,0-.04.02-.06.03-.06.03,0,0,0-.01.02-.03-.11,0-.23-.03-.34-.06.04.09.1.17.18.26.14.15.3.29.42.47Z"/>
        <path class="cls-1" d="M174.22,67.58s0,0,0,0c0,0,0,0,0,0,0-.01,0-.02,0-.02,0,0,0,.01-.01.02,0,0,0,0,.01,0Z"/>
        <path class="cls-1" d="M175.35,73.75c.21-.35.71-.43,1.11-.55.16-.05.32-.1.43-.21.07-.07.12-.15.16-.23-.02,0-.04,0-.06,0-.04,0-.09.01-.13.01-.04,0-.08,0-.11,0-.03,0-.07,0-.1,0,.1-.06.19-.11.32-.17.04-.02.07-.03.11-.04-.04,0-.09,0-.14,0-.07-.01-.14-.04-.18-.07,0,.01,0,.03-.02.05-.04.06-.12.11-.2.17-.02-.06-.03-.13-.02-.2.02-.09.07-.19.16-.26-.1.04-.15.09-.2.16-.04.05-.1.06-.14.04-.04-.02-.07-.07-.04-.12,0-.01.03-.04.04-.06,0-.02,0-.04-.03-.04-.03,0-.07.04-.1.05-.03,0-.09-.01-.13-.05,0,.01-.01.03-.02.04-.17.34-.39.65-.59.97-.05.17-.09.34-.11.51Z"/>
        <path class="cls-1" d="M175.83,71.64s-.03,0-.05,0c-.02.02-.05.04-.07.05,0,0,.01,0,.02,0,.03-.02.07-.03.1-.05Z"/>
        <path class="cls-1" d="M175.99,71.69s0-.01,0-.02c0,0,0,0-.01,0-.02.02-.05.04-.08.06,0,0,.01,0,.02,0,.02-.01.04-.03.06-.04Z"/>
        <path class="cls-1" d="M172.36,65.75c.01-.47.03-.93.04-1.4,0-.23,0-.45,0-.68-.06.01-.13,0-.2,0v2.1s.03-.01.05-.01c.03,0,.07,0,.1,0Z"/>
        <path class="cls-1" d="M173.48,78.31s.01-.04.02-.06c-.01.01-.03.03-.04.04h.02Z"/>
        <rect class="cls-1" x="171.13" y="81.88" width="1.29" height="1.98"/>
        <path class="cls-1" d="M174.1,74.98s.01-.02.02-.03c0-.16-.05-.31-.13-.46,0-.01-.02-.03-.02-.04-.06-.08-.13-.15-.19-.23-.05-.07-.11-.13-.16-.2-.13-.13-.28-.26-.41-.37-.27-.24-.65-.06-.99-.12v4.1l.74.4c.13-.17.3-.32.42-.46.22-.26.46-.54.56-.86.09-.31-.04-.62-.07-.94-.03-.3.06-.54.24-.79Z"/>
        <path class="cls-1" d="M177.05,77.81c-.16-.08-.38-.18-.56-.31l.02.11s-.06.05-.12.05c-.1,0-.19-.06-.26-.14-.07-.09-.08-.2-.09-.31,0-.06-.02-.12-.03-.17,0-.02,0-.04-.02-.06,0,0,.02,0,.03,0,0,0,0,0,0,0,0,0,0,0-.01-.01,0,0-.02.01-.02.02,0-.02-.01-.04-.02-.06,0,0,0,0-.02-.01,0,0-.01.02-.02.03,0,0,0,.01.01.02.01.01.02.03.03.04-.02.02-.05.03-.09.05-.05.02-.1.04-.15.05,0,.02,0,.03,0,.05,0,.07.02.15.03.23,0,.04,0,.08,0,.11-.01.04-.03.08-.09.11-.04.02-.09.04-.17.05-.04,0-.09,0-.15,0-.02,0-.03,0-.05,0-.02,0-.04,0-.05-.02-.02,0-.03-.01-.06-.02-.02,0-.04-.02-.06-.03-.02-.01-.04-.02-.06-.04-.02-.02-.04-.03-.06-.05-.04-.04-.09-.08-.12-.13-.02-.02-.03-.05-.05-.07-.12.31-.4.52-.58.8-.11.18-.19.37-.23.56l3.14,1.69c0-.14.03-.28.08-.39.13-.35.43-.64.54-1,.04-.12.06-.26.04-.39-.11-.32-.43-.53-.8-.71Z"/>
        <path class="cls-1" d="M178.67,71.46s.03-.01.05,0c-.02-.06-.04-.11-.07-.17,0,.03,0,.06,0,.08,0,.03,0,.07,0,.1Z"/>
        <path class="cls-1" d="M172.72,73.3c.15-.02.27,0,.37.03-.08-.11-.31-.43-.38-.68-.16.05-.33.06-.5.02v.62c.16.04.33.02.51,0Z"/>
        <path class="cls-1" d="M153.42,36.68c-20.75,0-37.57,16.82-37.57,37.57s16.82,37.57,37.57,37.57,37.57-16.82,37.57-37.57-16.82-37.57-37.57-37.57ZM184.09,91v3.4h-61.33v-2.06c.6-.22,1.25-.2,1.87-.33.08-.02.2,0,.31.02.05-.15.15-.26.28-.33,0-.04,0-.08.03-.09.14-.09.3-.14.46-.14-.11-.21.24-.58.74-.1-.09-.13-.04-.16-.09-.3.13.06.32.06.44.1-.28-.19-.48-.42-.5-.76.27.02.53.11.76.26-.14-.12-.2-.29-.08-.49.26.09.48.22.73.31-.32-.33.63-1.3,1.05-.33.03-.13.16-.25.19-.34.11.06.19.15.25.25.15,0,.31.06.45.19-.11.19-.28.4-.38.62.1.04.19.11.25.21-.38-.7.74-.2.91-.22-.15-.18-.2-.49.19-.5.09,0,.18.03.27.07v-7.25h-.71v-.81h7.37v-.18c-.21.03-.43,0-.62-.12-.26-.18-.35-.49-.39-.78-.05-.37-.02-.76-.03-1.13,0-.43,0-.86,0-1.29,0-.86.03-1.72.04-2.57,0-.18.06-.36.01-.54-.05-.18-.24-.17-.41-.16-.3.02-.62,0-.92-.02-.52-.05-.88-.31-.96-.78-.03-.18,0-.35,0-.53,0-.04,0-.07,0-.1-.01,0-.02,0-.03,0h-.17l.07-.04s-.06-.06-.07-.1c-.05-.21.05-.4.26-.49.11-.05.21-.05.3-.03.03,0,.07,0,.1.01.06-.06.06-.11.11-.2.1-.17.33-.27.54-.22.12.03.18.12.24-.02.04-.1.04-.22.09-.32.11-.21.33-.28.57-.26.07,0,.27.06.31,0,0,0,0-.12,0-.15,0-.05.02-.11.05-.16.11-.18.34-.23.55-.23.13,0,.27.05.35-.07.05-.07.05-.17.09-.24.05-.08.12-.14.22-.18.08-.03.22.01.31,0,.03-.04.07-.06.12-.07l-.19-.41.03-.02c-.08-.1-.09-.24,0-.36.08-.1.22-.14.35-.15.07,0,.15,0,.23,0,.19-.03.15-.11.19-.24.04-.12.12-.24.25-.3.16-.06.23.01.37.05.08.02.06.05.11-.05.03-.06.04-.13.07-.2.05-.11.12-.23.23-.3.11-.06.24-.07.36-.02.09.04.14.14.25.1.07-.02.1-.13.12-.18.06-.21.11-.53.45-.42.07.02.12.09.18.11.16.04.16-.07.19-.16.05-.14.09-.27.22-.37.16-.12.36-.14.54-.08.05-.08.09-.17.12-.27.03-.11.06-.17.18-.21.1-.03.19-.01.29.02.04.02.09.04.13.06.07.02.05.04.09,0,.06-.06.06-.19.11-.26.04-.06.1-.11.18-.14.11-.05.21-.03.33,0,.15.04.2.04.27-.1.1-.19.22-.41.47-.44.12-.01.18.04.28.07.07.03.03.05.07-.02.02-.04.02-.12.04-.17.06-.18.19-.33.4-.31.1,0,.23.11.32.05.09-.05.1-.23.11-.31.01-.16.19-.22.33-.13.09.06.19.08.28.06l.13-.07s.06-.07.07-.12c.03-.12-.01-.21.08-.31.07-.07.18-.1.28-.1.06,0,.11.01.16.02.12.02.12.05.18-.04.06-.1.05-.2.14-.29.08-.08.19-.13.3-.16.15-.04.31-.02.44.04.03-.09.05-.24.07-.28.05-.1.12-.19.23-.24.13-.05.22-.03.34.01.1.03.13.06.21-.02.07-.07.08-.22.09-.31,0-.08.08-.17.18-.16.14.01.28.04.41.08.06-.1.08-.21.05-.33-.02-.1.03-.22.15-.25.08-.02.15-.02.23,0,.06.01.15.07.22.08,0,0,0,0,0,0,0-.03.02-.06.03-.09.02-.05.04-.11.07-.16.08-.11.21-.18.35-.18.09,0,.15.05.24.07.04,0,.09.04.04-.02-.08-.11,0-.31.15-.33.14-.02.28-.03.41-.01.04-.08.11-.15.18-.21h-1.44c-.08.1-.26.13-.36,0-.12-.16-.04-.34.12-.45.08-.06.17-.07.27-.07.14,0,.23.07.29-.06.07-.14.05-.31.15-.44.11-.15.29-.2.47-.18.05,0,.14.04.19,0,.01,0,.04-.1.04-.11.03-.07.07-.14.12-.2.12-.15.3-.24.5-.27.23-.03.36.07.49-.14.08-.13.15-.26.27-.36.14-.12.3-.15.49-.15.03,0,.05,0,.08,0,.02-.08.07-.16.14-.21.07-.05.18-.07.28-.06.17-.21.35-.46.66-.47.07,0,.17.03.26.04l.19-.12s.01-.03.02-.04c.05-.12.1-.25.22-.33.06-.04.13-.06.21-.06.04,0,.14.04.17.03l.02-.02s.08-.15.1-.19c0-.01.02-.02.02-.04,0-.05,0-.1.01-.14.02-.17.03-.34.03-.51,0-.03,0-.06,0-.08.01-.16.01-.32-.05-.47-.09-.2-.24-.37-.4-.52-.13-.13-.28-.24-.43-.35,0-.01-.02-.03-.03-.04-.03-.03-.06-.06-.09-.09,0,0,0,0-.01-.01.5-.18.98-.4,1.45-.64.39.36.73.76,1.1,1.14-.04.03-.08.05-.12.08-.04.02-.08.04-.12.07-.08.04-.16.09-.23.13-.04.02-.04.06-.02.09-.02.08-.02.17-.03.26-.02.14-.02.28-.02.43.02-.04.05-.07.07-.1.15-.2.39-.37.64-.35.07-.2.23-.36.46-.43.09-.02.19-.01.27-.05.06-.03.09-.09.12-.15.06-.1.12-.21.22-.27.11-.07.2-.05.32-.05.09,0,.06.04.11-.03.02-.03.02-.1.03-.14.05-.22.2-.38.45-.39.16,0,.21.04.31-.1.06-.09.11-.18.19-.25.09-.08.19-.11.31-.12.14,0,.18.03.27-.09.13-.18.23-.38.46-.45.15-.05.33.01.43-.12.07-.1.11-.2.22-.27.11-.07.23-.08.36-.08.05,0,.1,0,.12,0,.03-.02.04-.12.06-.16.13-.21.41-.26.64-.26.02,0,.04,0,.06,0,.18-.08.37-.05.54.05.2.11.29.3.46.44.19.16.48.08.67.25.11.09.17.22.21.35.15-.01.3.01.44.08.23.11.31.27.43.47.13.21.46.09.68.18.21.09.29.25.39.44.06.12.1.2.24.24.1.03.21.03.32.05.18.03.34.12.47.24.12.12.2.26.29.39.04,0,.08-.01.12,0,.13.02.24.12.29.25.06,0,.12.01.19.03.21.04.37.16.48.33.08.12.12.32.24.42.15.12.45.04.64.11.2.08.28.22.4.38.03.04.07.07.11.08,0-.35.02-.71.04-1.06.03-.59.04-1.17.05-1.76,0-.09.15-.09.14,0-.01.6-.02,1.2-.02,1.8,0,.35,0,.7,0,1.06.11.02.23.03.33.09.13.09.21.22.29.35,0-.21,0-.42,0-.62-.08-.03-.15-.06-.21-.1-.03-.02,0-.06.03-.04.06.03.13.05.19.06,0-.08,0-.16,0-.25-.02-.01-.04-.03-.06-.04-.05-.03,0-.11.05-.07,0,0,.01,0,.02,0,0-.28.02-.55.03-.82.02-.39.05-.77.08-1.16,0,0,0,0,0,0,.05,0,.09,0,.14,0-.02.4-.02.81-.03,1.21-.01.38-.02.77-.02,1.15.02,0,.04,0,.06,0,.07,0,.07.1,0,.1-.02,0-.04,0-.07,0,0,.25-.01.5-.03.75.02,0,.05,0,.08,0,.11,0,.22,0,.32.04.19.07.26.22.35.38.07.13.09.13.24.14.09,0,.18.01.26.04.23.07.3.26.44.42.02.03.05.05.07.07.26-.07.58.1.63.38,0,0,0,.02,0,.03,0,0,.01,0,.02,0,.08.05.15.09.23.14.11,0,.22.03.31.08.24.13.38.36.38.61,0,.09-.07.19-.17.21-.02,0-.04,0-.06,0v.06h-.17s0,.11.01.15c0,0,0-.02.01-.03.09-.11.23-.08.36-.11.05-.01.11,0,.13.05.06.11,0,.22-.11.27-.06.02-.12.03-.18.03-.03,0-.1,0-.11.01-.04.07-.18.08-.22,0,0-.01-.01-.03-.02-.04-.19.04-.4-.02-.6-.02-.3.01-.64.02-.68.35-.06.5-.08,1.01-.11,1.52-.05.97-.05,1.94-.07,2.91l.3.14s-.04-.08-.06-.12c.08.02.15.04.21.08.05.03.07.07.1.1.02.02.04.03.05.05.03,0,.05.01.08.02-.03-.02-.06-.04-.08-.06,0,0,0,0,0,0,0,0,0,0-.01,0-.04-.03-.07-.05-.1-.09-.03-.03-.05-.07-.08-.11.05,0,.1,0,.15.02,0-.03,0-.06,0-.09-.01,0-.02,0-.03,0-.09,0-.16,0-.25-.02.04-.03.09-.05.14-.07.02-.03.04-.07.06-.09,0,0,0,0,0-.01-.01,0-.02-.02-.02-.03,0-.03.02-.05.09-.05,0,0,.01,0,.02-.01.03-.02.06-.04.09-.06l-.51-.05c-.04-.06-.06-.15-.04-.28.02-.12.08-.22.14-.28.06-.07.14-.11.2-.12.14-.03.22.06.31.14.05.04.09.08.14.12.03.02.06.04.09.06.02,0,.03.02.05.03.04-.03.09-.06.13-.08.02,0,.04-.02.06-.03-.02-.09-.04-.17-.07-.26-.02-.07-.07-.14-.1-.21-.03-.07-.05-.15,0-.24.03-.06.09-.12.18-.17.09-.05.2-.08.31-.09.2,0,.29.05.33.12.06-.05.16-.08.3-.03.02,0,.04.01.06.02.02,0,.03.02.05.03.03.02.06.04.08.06.05.05.08.1.09.15.04.11-.01.22-.06.32-.02.05-.05.11-.06.17-.01.05-.03.09-.03.14.02,0,.04,0,.06,0,.06,0,.12.03.19.06,0,0,.01,0,.02,0,.03-.04.06-.07.09-.11.01-.02.03-.04.04-.06-.01-.01-.03-.02-.04-.03-.03-.03-.06-.06-.09-.09.07,0,.13,0,.19,0,.04-.07.09-.14.17-.19.11-.05.25-.06.39,0,.12.06.16.14.16.21.03-.01.06-.02.09-.01l-.05.07s.03,0,.04.01c.04,0,.08,0,.11.01.03,0,.07.03.11.04.04.01.08.02.11,0,.03-.03-.06-.08-.07-.11,0-.03.07-.08.16-.09.01,0,.02,0,.03,0,.03-.03.06-.05.11-.04.01-.02.02-.04.04-.06.05-.05.13-.1.23-.13.1-.03.23-.03.36,0,.02,0,.04.01.06.02.16-.08.34-.11.55-.1-.03.03-.05.07-.08.1-.03.03-.07.06-.13.09-.03.02-.07.03-.11.04.02.02.03.04.04.06.05,0,.1,0,.15,0,.14,0,.3.06.43.17,0,0,0,0,0,0,0,0,.02.01.02.02,0,0-.01,0-.02-.01.09.07.15.16.19.25.04.09.04.17.04.25,0,0,0,.01,0,.02h.04c0-.05,0-.12,0-.19-.02-.13-.09-.24-.14-.35-.03-.06-.04-.11-.04-.16,0-.04,0-.08,0-.13.11.08.19.18.25.27.06.1.1.2.11.29.02.09.01.19,0,.27l.06.02h.02c.04-.09.09-.08.12,0,0,0,0,.01,0,.02l.15.02h.05s.02,0,.02,0h.02s.05,0,.05,0h.05s.05.02.05.02h.05s.01.01.01.01h.01s.02,0,.02,0h.05s.05.03.05.03h.05s.02.02.02.02h.02s.04.03.04.03l.04.02.04.02h.02s.02.02.02.02l.04.02.04.02.04.02h.02s0,.02,0,.02h0s.04.03.04.03l.03.02.03.02.03.02.06.05.06.05h.01s.01.02.01.02l.03.02.05.05h.01s.01.02.01.02l.02.02.04.05.02.02.02.02.04.05.02.02h0s0,.02,0,.02l.03.05.03.05.03.04.03.04v.02s.02.02.02.02l.02.04v.02s.02.02.02.02l.04.08.03.08.03.08v.02s.01.02.01.02v.04s.03.07.03.07h0s0,.02,0,.02h0s0,.01,0,.01h0s0,.02,0,.02l.02.03v.03s.03.03.03.03v.03s.02.01.02.01h0s.01.04.01.04v.03s.02.03.02.03v.03s.01.03.01.03v.03s0,.03,0,.03v.03s0,.03,0,.03v.02s0,.02,0,.02v.02s0,.02,0,.02v.02s0,.04,0,.04v.04s-.01.03-.01.03v.03s0,0,0,0c0,.02.02.04.02.06.04.12.04.23.01.32,0,.02-.01.03-.02.05,0,0,0,0,.01,0,0,0,0,0-.01,0,0,0,0,0,0,0,0,0,.01,0,.01,0,0,0,0,0,0,0,0,0,0,0,0,0,0,0,0,0,.01,0,0,0,0,.01-.02.03,0,.02-.01.03-.02.04-.02.04-.05.06-.07.09-.01.01-.03.02-.04.03l-.29.46s.06.07.07.12c.03.12,0,.28-.14.39-.02.02-.05.04-.07.05l.6.47s-.04,0-.02.03c.02.02.07.04.1.05.06.04.09.17,0,.12-.03-.02-.13-.15-.14-.11,0,.02.12.18.03.16-.07-.02-.08-.13-.1-.17-.05-.1-.12-.2-.21-.29.1.12.16.26.17.39,0,.07,0,.14-.02.21-.05-.06-.1-.11-.12-.18-.02-.06-.01-.1-.02-.15,0-.08-.02-.15-.06-.22,0,.01,0,.02,0,.03.02.06.04.11.04.16,0,.08-.03.15-.1.19-.02.03-.04.06-.07.08.03,0,.05,0,.08.02.07.03.12.08.19.13-.07.01-.14.01-.22,0-.08-.01-.17-.04-.25-.09,0,0-.02,0-.03,0,.06.05.12.08.18.12.12.05.1.17-.01.12-.03,0-.1-.06-.08,0,.01.03.06.05.08.08.04.05.04.19-.04.11-.02-.02-.08-.17-.11-.14-.02.02.06.2-.02.16-.06-.03-.05-.15-.05-.19-.01-.1-.05-.19-.1-.29,0,0,0,0,0,0,.05.13.06.26.04.37-.01.06-.03.11-.06.16,0,0,0,0,0,0-.01.03-.03.06-.05.09-.02.03-.05.06-.08.08-.06.04-.12.06-.17.07-.05,0-.09,0-.12-.03,0,.03-.02.05-.04.08l-.22-.62s-.01.03-.02.04c-.04.06-.09.12-.16.18-.02-.08-.04-.14-.02-.24.02-.08.06-.15.08-.22,0-.01,0-.03,0-.04l-.02-.04s-.01,0-.02,0c0,.02,0,.04-.01.06,0,.03-.03.07-.05.1-.02.03-.06.07-.1.1-.04.03-.1.06-.16.08-.04.06-.08.11-.13.16.02.02.04.03.06.05.03.03.05.06.08.09-.08,0-.16,0-.24-.01l.43.48s-.09-.04-.14-.07c-.14-.06-.27-.12-.4-.12,0,0,0,0-.01,0,.03.02.08.04.1.05.04.02.08.04.13.05.03,0,.06,0,.09.02,0,0,.02.01.03.02.03,0,.07.02.1.03.04,0,.08.02.12.03l.03.03s.03,0,.04,0c-.01,0-.03-.01-.04-.02.02,0,.05.01.07.02.03,0,.06,0,.09,0,.02,0,.03,0,.05-.01-.01,0-.02,0-.03.01,0,0,.02,0,.03,0l.04-.03s.06-.02.08-.02c.09-.02.17-.03.18-.01,0,.02-.03.03-.1.04.07,0,.11,0,.1.03,0,.01-.03.02-.06.03-.03,0-.08,0-.13,0,0,0,.02,0,.02.01.26.16.07.43-.17.48-.11.02-.22,0-.31-.03-.01.04-.03.08-.05.11l.06.1s-.05-.06-.07-.08c.02.03.04.05.07.08h0s-.04-.04-.06-.05c0,0,0,0-.01-.01,0,0,0,0,0,0,.02.02.05.04.08.06h0s-.05-.02-.07-.03c.02.01.04.02.07.04h0s-.04-.01-.06-.02c.02,0,.04.01.05.02h-.01s-.02,0-.02,0c0,0,.02,0,.02,0,0,0,0,0,0,0h-.01s.03.03.05.04c0,0,0,0,.01,0,.02,0,.03.02.05.03l-.04-.07s0,0,0,0c0,0,0,0-.01,0,0,0,0,0,.01,0,0,0,0,0,0,0,0,0,0,0,0,0,0,0,.01,0,.02,0,0,0,0,0-.01,0,.08,0,.17.02.26.04.08.01.16.02.24.04.08.01.16.03.23.05.09.03.16.08.16.12,0,.04-.05.05-.12.04.06.03.08.07.06.1-.03.04-.12.04-.21,0-.1-.04-.19-.11-.28-.17-.05-.03-.1-.07-.15-.1-.06-.04-.12-.08-.17-.12,0,0,0,0,0,0,.06.05.12.11.19.17.06.05.12.11.17.16.04.04.08.07.11.11.26.04.51.14.72.32.03.03.05.06.05.1.05.06.08.13.09.2,0,0,0,0,.01,0,0-.09-.02-.19-.08-.28-.04-.07-.02-.11.03-.12.05,0,.14.03.18.11.02.04.04.15.09.11.03-.02,0-.09.02-.12.01-.03.07-.05.13-.04.06,0,.11.05.09.11,0,.02-.05.05-.08.08-.03.03-.05.06-.02.09.02.02.08,0,.13,0,.03,0,.05,0,.07.01.03-.07.08-.13.14-.19-.01-.03-.02-.07-.02-.11-.01-.1.09-.16.18-.16,0,0,0,0,0,0,.08-.1.24-.12.31,0,.02.03.04.06.05.09.11.04.21.09.29.16.3.01.38.37.44.59,0,.04,0,.07-.03.08,0,.03,0,.05,0,.08.12-.1.35-.05.36.11.08-.07.19-.1.28-.08.08.03.11.08.1.14.02-.02.04-.03.06-.04l-.03.06s.02.02.02.03c0,.01.02.03.02.04.05.02.05.1,0,.12,0,0,.01.01.02.02.03,0,.04.02.04.04.03.04.05.07.06.11.03,0,.05.01.07.02-.02,0-.04.01-.06.02,0,.01,0,.03,0,.04.02,0,.05-.01.07-.02-.02.02-.04.03-.07.04,0,0,0,0,0,.01.02,0,.03,0,.04,0l.24-.07c.05.06.09.15.07.3,0,.07-.03.14-.06.19-.03.05-.07.09-.11.12-.07.06-.15.08-.21.07-.02,0-.04,0-.06-.01-.04.11-.1.23-.17.34,0,.06,0,.11-.02.11.03,0,.22-.22.25-.25.09-.09.18-.18.27-.27.14-.14.36-.02.38.15,0,.09.02.18.02.28,0,0,.02.02.03.02.05.05.06.14,0,.19-.06.04-.11.07-.18.09-.08.02-.2-.02-.24-.09-.2.21-.44.39-.68.27l.04.16v.04s-.15.04-.15.04l.12.33-.28.08-.15.05-.09.03h-.05s-.05.03-.05.03h-.06s-.03.02-.03.02h-.03s.03.01.03.01h.03s.03.01.03.01h.03s.01.01.01.01h.01s.01,0,.01,0h.01s.01.01.01.01h.01s.01.01.01.01h0s0,.01,0,.01h0s0,.01,0,.01h0s0,.02,0,.02h0s0,.02,0,.02h0s0,.02,0,.02h0s0,.02,0,.02h0s0,.02,0,.02h0s0,.02,0,.02h0s0,.01,0,.01h0s0,.01,0,.01h0s0,.01,0,.01h0s0,.01,0,.01h0s0,.01,0,.01h0s0,.01,0,.01h0s0,.01,0,.01h0s0,0,0,0h0s0,.01,0,.01h0s0,.01,0,.01h0s0,.01,0,.01h-.02s-.02.02-.02.02h-.01s-.01.01-.01.01h.02s.02,0,.02,0h.02s.02,0,.02,0h.02s.01,0,.01,0h.01s.01,0,.01,0l-.08.02h-.04s-.05.02-.05.02h-.05s-.05.02-.05.02h-.05s-.06.01-.06.01h-.06s-.03,0-.03,0h-.03s-.06,0-.06,0h-.06s-.03,0-.03,0h-.03s-.07,0-.07,0h-.08s-.04-.01-.04-.01h-.04s-.04-.01-.04-.01h-.04s-.07-.02-.07-.02h-.02s-.02,0-.02,0h-.04s-.04-.02-.04-.02h-.02s-.02-.01-.02-.01l-.07-.02h-.04s-.04-.03-.04-.03h-.04s-.04-.03-.04-.03l-.04-.02-.04-.02-.04-.02-.04-.02-.04-.02-.04-.02-.04-.02h-.02s-.02-.02-.02-.02l-.04-.03-.04-.03h-.02s-.02-.03-.02-.03l-.04-.03-.04-.03-.02-.02-.02-.02-.03-.03-.03-.03c-.08.06-.12.11-.15.18.08.04.09.17-.02.21-.03.01-.07.02-.1.03-.1.14-.26.21-.47.23-.05,0-.1,0-.15,0-.06.03-.12.04-.18.06-.14.03-.28.03-.42.04-.17,0-.46-.07-.53.13-.04.12-.01.24-.07.36-.08.16-.18.32-.26.49-.06.12-.13.25-.19.37-.04.18-.05.37.01.57.03.09.06.19.09.28l2.47,1.33v.72l-1.16-.6v8.18c.1-.05.22-.13.38-.27-.4-.64.07-1.09.2-.38.05.28-.45.57-.01.84.43.27.21-.39.21-.42.05-.28-.3-.43.11-.65.31-.17.5-.03.58.2.18.08.39.41.54.5-.27-.28,0-.55.32-.57.12.27-.55.87.05.82-.23-.56.4-.64.71-.32,0-.08.02-.17.06-.27.31-.01.55.2.67.46.31-.47.54-.05.52.31.06-.22.25-.4.46-.55v.45c-.09.18-.13.35,0,.49Z"/>
        <path class="cls-1" d="M173.36,73.07c.06.1.12.21.19.32.02.03.05.05.07.08.09.1.2.17.3.26.12.09.19.21.29.31.08.08.17.12.26.13,0-.02.02-.03.02-.05.05-.11.08-.23.13-.35.02-.05.05-.1.08-.15.06-.19.14-.37.25-.54,0-.05,0-.1-.02-.15-.13-.45-.78-.76-.81-1.23-.22.13-.47.16-.72-.02,0,0,0,0,0,0,0,.02-.01.04-.02.06-.04.17-.09.34-.17.5-.03.26,0,.52.1.76.02.03.03.06.05.08Z"/>
        <path class="cls-1" d="M172.36,65.97s-.06,0-.09,0c-.02,0-.04,0-.05-.01v1.94s.07,0,.11.01c0-.64.02-1.29.04-1.93Z"/>
        <path class="cls-1" d="M172.41,63.45c0-.19-.06-.48.08-.64.08-.09.22-.11.36-.12.18-.08.42-.1.62-.11.17,0,.41-.03.59.03,0-.03,0-.05.02-.08h-1.86v.99c.07,0,.13-.01.2-.02,0-.01,0-.03,0-.04Z"/>
        <path class="cls-1" d="M173.54,67.95s-.05,0-.07-.02c.01,0,.02.01.03.02.01,0,.02,0,.04,0Z"/>
        <path class="cls-1" d="M176.37,72.04s.03.02.05.03c.03.01.05.02.08.03,0,0-.01-.01-.02-.02-.02-.02-.03-.04-.03-.06,0,0,0,0,0,0,0-.01-.02-.02-.02-.04,0,0,0,0,0-.01l-.1-.02s.02.04.02.05c.01.02.03.04.04.05Z"/>
        <polygon class="cls-1" points="172.51 68.02 172.51 68.02 172.51 68.02 172.51 68.02"/>
        <path class="cls-1" d="M174.21,67.47s0,0,.01-.01c0,0,0,0-.01,0-.03.02-.05.04-.07.07,0,0,0,0,.01,0,.02-.02.04-.04.06-.05Z"/>
        <path class="cls-1" d="M177.86,71.47s-.01-.06-.02-.09c0,0-.01,0-.02-.01-.01.01-.02.02-.04.03,0,.01,0,.03.01.04.02.01.04.02.06.03Z"/>
        <path class="cls-1" d="M178.14,71.36s-.05-.03-.08-.05c0,0-.01.01-.02.02l.09.06s0-.02.01-.03Z"/>
        <path class="cls-1" d="M177.94,72.09s0-.02,0-.02c-.01.04-.03.08-.06.1,0,0,0,0,.01,0,.02-.03.04-.06.05-.08Z"/>
        <path class="cls-1" d="M177.5,72.64s-.08.1-.12.16c.01,0,.03-.01.05-.02.12-.05.24-.11.35-.16.03-.01.05-.02.08-.03h0s0-.01,0-.01l.02-.02s.02-.03.04-.04c.05-.05.08-.09.11-.12.01-.01.02-.02.03-.04-.05,0-.09.01-.14.02-.09.09-.19.18-.3.2-.05.02-.09.04-.14.06Z"/>
        <polygon class="cls-1" points="177.32 67.18 177.31 67.17 177.31 67.18 177.32 67.18 177.32 67.18"/>
        <polygon class="cls-1" points="177.3 72.1 177.3 72.1 177.3 72.1 177.3 72.1"/>
        <path class="cls-1" d="M178.13,71.91s.01.02.01.03c0,.02,0,.03,0,.05,0,.02,0,.04,0,.06v.04s0,.02,0,.02c0,0,0,.02,0,.03,0,0,0,0,0,0,.04,0,.07,0,.11-.01,0,0,0,0,0,0v-.03s0-.03,0-.05c0-.01,0-.02,0-.03-.01-.02-.03-.04-.04-.06.02.06.01.14-.02.06,0-.02-.03-.1-.04-.14,0,0-.01,0-.02,0,0,0,0,.02,0,.03Z"/>
        <path class="cls-1" d="M178.47,71.96s.06.03.09.05c.01-.01.03-.02.04-.03,0,0,0,0,0,0-.01,0-.03,0-.04-.01-.03-.01-.05-.02-.07-.04,0,.01-.01.02-.02.04Z"/>
        <path class="cls-1" d="M178.5,67.26c-.04.05-.09.09-.14.12.04,0,.07-.01.1-.03.01-.03.02-.06.04-.08Z"/>
        <path class="cls-1" d="M178.56,72.29s.04,0,.05,0c.06.01.11.04.17.07-.05-.05-.11-.08-.17-.1,0,0-.01,0-.02,0-.01,0-.02,0-.03.01Z"/>
        <path class="cls-1" d="M177.42,72.2s-.02,0-.03-.01c-.02,0-.04.02-.05.03-.02,0-.03.02-.04.03v.08s.1-.06.15-.1c0,0-.01-.01-.02-.02Z"/>
        <path class="cls-1" d="M178.28,71.41s0,0,0,0c0,0-.02,0-.03,0,0,0,0,.01,0,.02,0,0,.02,0,.03,0,0,0,0,0,0,0Z"/>
        <path class="cls-1" d="M178.26,72.36s.02-.01.03-.02c0,0,0,0-.01,0,0,0,0,.01-.01.02Z"/>
        <path class="cls-1" d="M176.78,72.33s.05-.04.03-.06c-.02.02-.03.04-.04.07,0,0,0,0,.01,0Z"/>
        <polygon class="cls-1" points="176.67 71.58 176.67 71.58 176.67 71.58 176.67 71.59 176.67 71.58"/>
        <path class="cls-1" d="M176.83,67.08s0-.03,0-.04c0,0-.01,0-.02,0-.02,0-.04.01-.06.02-.02,0-.04.02-.05.03-.02.02-.04.04-.05.06,0,0,0,0,.01,0,.02-.01.04-.03.06-.04.03-.02.07-.03.11-.04Z"/>
        <path class="cls-1" d="M176.69,70.9s-.02-.01-.03-.02c-.01,0-.02,0-.03,0,.02.02.03.03.05.05,0-.01,0-.03,0-.04Z"/>
        <path class="cls-1" d="M176.64,72.03s.06.04.1.05c.04.01.08.02.12.02-.04,0-.07-.02-.1-.04-.03-.02-.06-.03-.09-.06-.02-.03-.04-.06-.05-.1-.02-.02-.04-.04-.05-.06,0,.02,0,.04,0,.05.01.05.03.1.06.13Z"/>
        <path class="cls-1" d="M176.84,66.81s0,0,0,0c-.04.02-.07.04-.1.06-.06.04-.1.1-.13.15.05-.07.14-.12.25-.15,0-.02,0-.04,0-.07Z"/>
        <path class="cls-1" d="M176.49,69.59s0,.03,0,.05c.01-.04.02-.08.03-.12,0,.02-.02.05-.02.07Z"/>
        <path class="cls-1" d="M177.57,72.25s.05-.03.07-.06c0,0,0,0,0,0-.01-.01-.02-.03-.03-.05,0,0,0,0,0,0-.03.05-.07.09-.15.07,0,0,0,0-.01,0,0,0,0,0,0,0,.04.03.08.05.13.03Z"/>
        <path class="cls-1" d="M177.12,72.4s0,0,0,.01c.02,0,.03-.01.04-.02-.01,0-.02,0-.03,0Z"/>
        <path class="cls-1" d="M177.1,71.92s.02,0,.02,0c.04-.01.07-.03.09-.06-.04.03-.09.04-.15.04,0,0,.02.02.02.02,0,0,0,0,0,0Z"/>
        <path class="cls-1" d="M176.88,73.34c.18.02.36.05.52.09.17.04.35.16.53.18.11.01.21-.05.29-.13,0,0,0,0,0,0,0,0,0-.01,0-.02-.19.03-.38-.07-.42-.22-.01,0-.02,0-.03-.01-.08-.03-.14-.1-.11-.18.08-.24.36-.35.6-.27,0,0,0,0,0,0,0-.01-.06-.02-.1-.04-.04-.02-.07-.04-.03-.05.03-.01.07,0,.11.02.04.02.07.04.09.05.02,0,.03.01.05.02,0,0,.01-.02.02-.03-.04-.02-.08-.04-.11-.07-.05-.05-.09-.11-.11-.18.08.03.14.05.21.1.06.04.07.07.11.1,0,0,0,0,.01,0,.03,0,.05,0,.07.03.01.01.03.02.04.03,0,0,.02,0,.03,0,.01,0,.02,0,.04,0,0,0,0,0,0-.01-.06-.02-.11-.04-.14-.07-.07-.05-.09-.13-.03-.19.03-.05.11-.08.19-.07.08,0,.17.05.25.11-.11-.11-.22-.15-.34-.14-.05,0-.09.02-.16.02-.08,0-.14-.02-.22-.04-.02.02-.04.05-.06.07-.04.05-.09.1-.14.15-.03.03-.05.06-.08.08-.01.01-.03.03-.04.04h0s0,0,0,0h0s-.02.01-.02.01c-.1.04-.22.09-.34.12-.06.02-.12.03-.18.05-.01,0-.03,0-.04,0-.01,0-.01,0-.02,0h0s0,.02-.01.02c-.1.17-.24.3-.41.39Z"/>
        <path class="cls-1" d="M177.19,72.54s.03-.03.04-.05c0,0-.01,0-.01,0-.01,0-.02,0-.03,0,0,0,.01.01.01.02,0,0,0,.01-.02.02,0,0,0,0,.01,0Z"/>
        <path class="cls-1" d="M177.24,67.12l-.03-.02s-.02.01-.02.02c.01,0,.02,0,.03.01,0,0,.01,0,.02-.01Z"/>
      </g>
    </g>
  </g>
</svg>